# xmcd
#
# Track frame offsets:
#	150
#	20216
#	37172
#	65065
#	90310
#	110609
#	141200
#	162557
#	189283
#
# Disc length: 2890 seconds
#
# Revision: 0
# Processed by: cddbd v1.5.2PL0 Copyright (c) Steve Scherf et al.
# Submitted via: audiograbber 1.83.01
#
DISCID=800b4809
DTITLE=Various Artist - Led Zeppelin - The Ultimate Tribute CD 2
DYEAR=2008
DGENRE=Rock
TTITLE0=Steve Morse, Michael White, Billy Sherwood, Alan White - Heartbreaker
TTITLE1=John Wetton, Geoff Downes, Alan White, Billy Sherwood - Dancin' Days
TTITLE2=Keith Emerson, Michael White, Billy Sherwood, Alan White - Black Dog
TTITLE3=Walter Trout, Tony Kaye, Michael White, Billy Sherwood, Alan WhitePat T
TTITLE3=aversWalter Trout, Tony Kaye - All my Love
TTITLE4=Pat Tavers - Houses OF The Holy
TTITLE5=Artimus Pyle, Jimmy Hall, Larry Goad, Abe White, Kurt Menk, Thane Shear
TTITLE5=on - When The Levee Breaks
TTITLE6=Pat Travers - Whole Lotta Love
TTITLE7=Artimus Pyle, Jimmy Hall, Ryan Bullington, Abe White, Kurt Menk, Jim "T
TTITLE7=urbo" Kirby - You Shook Me
TTITLE8=Rick Wakeman, Michael White, Billy Sherwood, Vinnie Colaiuta, Jim "Turb
TTITLE8=o" Kirby - Fool In The Rain
EXTD=
EXTT0=
EXTT1=
EXTT2=
EXTT3=
EXTT4=
EXTT5=
EXTT6=
EXTT7=
EXTT8=
PLAYORDER=
